<?xml version="1.0" encoding="UTF-8"?><svg id="Layer_1" xmlns="http://www.w3.org/2000/svg" viewBox="0 0 469.3 469.3"><defs><style>.cls-1{fill:#fff;}</style></defs><path class="cls-1" d="M400.5,164.5c1.9-.1,3.4-.3,4.8-.2,7.6,.2,13.9-2.6,19.2-8,7.2-7.3,14.4-14.5,21.8-21.9,40.1,78.6,32.5,200.9-61,280.1-91.8,77.7-227.7,72.5-315.1-13C-15.6,317.4-24,182,52.1,87.7,128.3-6.8,251.4-19,335.2,23.1c-5.7,5.6-11.2,11-16.7,16.5q-11.9,11.9-13.7,29.1c-52.5-20.4-104.1-19-154.2,7.2-34.5,18.1-60.2,45.2-77.5,80.1-34,68.6-19.1,154.5,35.9,207.1,58,55.5,142.8,67.5,211.6,29.6,40.3-22.2,68.5-55.1,83.8-98.5,15.3-43.4,13.4-86.6-3.9-129.6Z"/><path class="cls-1" d="M346.5,179.4c25.1,48.5,15.3,115.4-36.1,154.8-49.8,38.1-120.5,33.1-164.4-11.5-44.4-45.1-48.6-115.5-9.8-164.9,40-50.9,106.6-59.5,153.5-35-.8,1-1.6,2-2.4,2.9-12.3,12.3-24.6,24.7-37,36.9-1.6,1.5-4.6,2.7-6.7,2.4-36.6-4.9-72,21.1-78,57.5-7.3,44.4,26.5,83.6,71.4,82.7,41-.8,73.1-38.4,67.6-79.1-.2-1.7,0-4.2,1.1-5.3,13.4-13.7,27-27.3,40.9-41.2Z"/><path class="cls-1" d="M391.1,43.1c17.8-14.7,29.2-16.4,40.1-6.2,6.1,5.7,8.5,12.9,7.5,21.2-1,8.3-6.5,13.8-13.1,20,12.2,0,23,0,33.8,0,2.2,0,4.7,.4,6.5,1.5,4.4,2.6,4.6,8,.7,12.2-4.4,4.6-8.9,9-13.4,13.5-13,13-26.1,26-39,39.1-2.8,2.9-5.9,4.2-10,4.1-14.8-.2-29.6,0-44.4-.1-3.2,0-5.4,.9-7.7,3.2-32.4,32.5-65.1,64.8-97.2,97.6-13.2,13.4-28.7,11.1-37.2,2.7-8.7-8.6-10.8-24.4,2.4-37.3,32.8-32.1,65-64.9,97.6-97.3,2.4-2.4,3.4-4.7,3.3-8.1-.2-14.8-.3-29.6,.1-44.5,0-3.2,1.7-7.1,3.9-9.4,16.9-17.4,34.2-34.4,51.3-51.6,2.8-2.8,5.7-5,9.9-3.3,4.3,1.7,5.2,5.4,5.1,9.6,0,10.7,0,21.4,0,33Z"/></svg>