<?xml version="1.0" encoding="UTF-8"?><svg id="Layer_1" xmlns="http://www.w3.org/2000/svg" viewBox="0 0 500 500"><defs><style>.cls-1{fill:#fff;}.cls-2{fill:#f50070;}</style></defs><g><g><path class="cls-2" d="M35.2,303.1c-4.3-3.4-6.7-5.7-6.8-5.8l7.7-7.9s2.1,2,5.9,5l-6.8,8.7Z"/><path class="cls-2" d="M129.6,333.9l-.5-11.1c5.1-.2,10.3-.8,15.4-1.7l1.9,10.9c-5.6,1-11.2,1.6-16.8,1.8Zm-22.5-.8c-5.5-.7-11.1-1.7-16.6-3.1l2.7-10.7c5,1.3,10.2,2.2,15.3,2.8l-1.3,11Zm61.1-6.5l-3.5-10.5c4.8-1.6,9.7-3.6,14.6-5.8l4.6,10.1c-5.2,2.3-10.4,4.4-15.6,6.2Zm-99.1-3.7c-5.1-2.2-10.2-4.7-15.1-7.4l5.4-9.7c4.6,2.5,9.3,4.9,14,6.9l-4.3,10.2Zm134.4-13l-5.8-9.4c4.4-2.7,8.8-5.6,13.1-8.8l6.5,9c-4.6,3.3-9.2,6.4-13.9,9.2Zm58.8-49.3l-7.6-8.1c4.1-3.9,8.2-7.6,12.1-11l7.3,8.3c-3.9,3.4-7.9,7-11.9,10.8Zm28.3-24.4l-6.8-8.7c4.5-3.5,9-6.8,13.3-9.8l6.3,9.1c-4.2,2.9-8.5,6.1-12.8,9.4Zm143.7-6.9c-4.6-3.7-8.7-6.9-12.6-9.6l6.4-9c4.1,2.9,8.4,6.2,13.2,10.1l-7,8.6Zm-113-13.7l-5.3-9.7c5.1-2.8,10.2-5.3,15.1-7.4l4.3,10.2c-4.6,1.9-9.3,4.2-14.1,6.9Zm82.7-6.6c-4.8-2.3-9.5-4.1-14.2-5.5l3-10.7c5.3,1.5,10.7,3.6,16.1,6.2l-4.8,10Zm-49.1-6.5l-2.2-10.8c5.8-1.2,11.6-1.8,17.2-1.9v11.1c-4.8,0-9.8,.6-14.9,1.6Z"/><path class="cls-2" d="M457.1,248.8c-2.1-1.8-4.2-3.6-6.3-5.4l7.2-8.4c2.1,1.8,4.2,3.6,6.3,5.4l-7.2,8.4Z"/></g><path class="cls-2" d="M117.4,60.3c-39,7.1-61.5,43.8-51.1,83.9,5.7,22,16.8,41.5,28.7,60.6,11,17.5,23.1,34.1,36.3,50.3,11-13.4,20.9-27.1,30.2-41.2,13.7-20.8,26.5-42.1,33.8-66.1,16-52.8-23.7-97.3-77.9-87.5Zm14.5,105.3c-22.1,.2-39.7-17-39.9-39.1-.3-21.4,17-39.3,38.3-39.6,22.3-.3,40.3,16.8,40.5,38.6,.2,22.2-16.9,40-38.9,40.2Z"/><path class="cls-1" d="M232.9,170.8l-39.2-2.7c-1.6,3.7-3.3,7.2-5,10.8l34.9,2.4,43.3,233.3-108.9-8.9-95.5,47.3L19.7,219.1l60.2-28.5c-1.9-3.3-3.6-6.5-5.3-9.7L7.3,212.7,54.2,469.3l105.9-52.4,117.8,9.7,2.2-1.1-47.3-254.6Z"/><path class="cls-1" d="M269.1,425.8l-46.8-251.7,105.7-50.4h1.4l118.3,7.8,48.3,255.8-120.3-9.5-97.7,48.7-8.9-.7Zm-34.4-245.3l43.5,233.6,95.4-47.5,108.9,8.6-44-233.1-108.3-7-95.4,45.5Z"/></g><path class="cls-2" d="M234.6,286.9l-7.3-8.3c3.9-3.4,7.8-7,11.7-10.8l7.7,7.9c-4,3.9-8.1,7.7-12.2,11.2Z"/></svg>