<?xml version="1.0" encoding="UTF-8"?><svg id="Layer_1" xmlns="http://www.w3.org/2000/svg" viewBox="0 0 313.5 470.6"><defs><style>.cls-1{fill:#f50070;}</style></defs><g id="Aro3ez"><path class="cls-1" d="M44.9,22.3h7.2c78.2,0,156.5,0,234.7,0,3.8,0,7.8,.2,11.4,1.3,14.6,4.6,19.9,21.9,10.6,34.7-10.3,14.2-20.9,28-31.4,42-8.4,11.2-16.8,22.4-25.4,33.9,1.1,1.6,2.2,3.1,3.3,4.6,17.4,23.2,34.8,46.5,52.3,69.7,3.8,5.1,6.1,10.5,5.7,17-.6,9.7-7.6,18.1-17.1,20.1-3.2,.7-6.6,.8-9.9,.8-78.1,0-156.1,0-234.2,0h-7.6c0,2.6,0,4.8,0,7,0,64.1,0,128.1,0,192.2,0,13.1-6.4,21.8-17.8,24.4-12.6,2.8-25.5-6.6-26.6-19.5-.2-1.9-.2-3.8-.2-5.8C0,305.1,0,165.4,0,25.7c0-3.1,0-6.4,.8-9.4C3.5,6.3,12.8-.4,23.2,0c10,.4,18.8,7.7,21,17.5,.3,1.3,.4,2.7,.7,4.8ZM245.9,201.4c-1.3-1.9-2.2-3.3-3.2-4.7-11.4-15.3-22.9-30.5-34.3-45.8-9.2-12.2-9.2-20.8-.2-32.8,11.5-15.4,23.1-30.8,34.6-46.2,1-1.3,1.8-2.7,2.9-4.3H44.9V201.4H245.9Z"/></g></svg>