<?xml version="1.0" encoding="utf-8"?>
<!-- Generator: Adobe Illustrator 26.0.3, SVG Export Plug-In . SVG Version: 6.00 Build 0)  -->
<svg version="1.1" xmlns="http://www.w3.org/2000/svg" xmlns:xlink="http://www.w3.org/1999/xlink" x="0px" y="0px"
	 viewBox="0 0 325.5 384.5" enable-background="new 0 0 325.5 384.5" xml:space="preserve">
<g id="Layer_1">
	<path fill="#F90170" d="M163.6-0.2c0.6,1.1,1.8,1.4,2.8,2C218.2,32.3,270,62.9,321.8,93.4c1.2,0.7,2.9,1,3.4,2.6
		c-0.2,0.1-0.5,0-0.7,0.2c-13.4,8-26.8,16-40.3,24c-4.6,2.7-9.1,5.8-14,8.2c-13.6-8-27.2-16-40.8-24c-21.4-12.6-42.9-25.3-64.3-38
		c-1.6-0.9-2.7-0.9-4.3,0c-35,20.7-70,41.4-105,62.1c-0.2,0.1-0.5,0.2-0.7,0.3C43.6,122,32,115.1,20.4,108.2
		c-6.6-3.9-13.2-7.8-19.8-11.7c0-0.1-0.1-0.3-0.1-0.4c0.3-0.8,1.1-1,1.7-1.3c42.3-25,84.6-49.9,126.9-74.8
		c11.4-6.7,22.7-13.5,34-20.2C163.3-0.2,163.4-0.2,163.6-0.2z"/>
	<path fill="#AB01B2" d="M0,96.1c0.2,0.1,0.3,0.1,0.5,0c0,0.1,0.1,0.2,0.1,0.4c0,1.2-0.1,2.3-0.1,3.5c0,61.2,0,122.5,0,183.7
		c-0.2,0-0.3,0-0.5,0C0,221.2,0,158.7,0,96.1z"/>
	<path fill="#A101BA" d="M0.5,283.8c0-61.2,0-122.5,0-183.7c0-1.2,0.1-2.3,0.1-3.5c6.6,3.9,13.2,7.8,19.8,11.7
		c11.6,6.9,23.2,13.8,34.9,20.7c0,40.7,0,81.4-0.1,122.2c0,1.6,0.7,2.2,1.9,2.9c34.2,19.9,68.3,39.8,102.5,59.7
		c0.7,0.4,1.4,0.9,2.1,1.4c0,20.1,0,40.2,0,60.3c0,1-0.4,2,0.4,2.9c0,0.2,0,0.4,0,0.6c-2.2-0.4-3.9-1.9-5.7-3
		c-51.4-30-103-59.6-153.9-90.4C1.7,284.8,0.9,284.6,0.5,283.8z"/>
	<path fill="#CE0294" d="M270.3,128.3c4.9-2.4,9.3-5.4,14-8.2c13.4-8,26.9-16,40.3-24c0.2-0.1,0.5-0.1,0.7-0.2
		c0.1,0.9,0.2,1.8,0.2,2.7c0,60.6,0,121.2,0.1,181.9c0,2.1-0.6,3.3-2.4,4.3c-16.8,9.9-33.5,19.9-50.2,29.9c-0.7,0.4-1.4,1.4-2.2,0.9
		c-0.7-0.4-0.3-1.5-0.3-2.3c0-60.7,0-121.4,0-182.1C270.5,130.3,270.4,129.3,270.3,128.3z"/>
	<path fill="#CE0294" d="M162.1,378.6c0-0.2,0-0.4,0-0.6c0-21,0-42,0-63.1c19.4-11.6,38.8-23.2,58.5-35.1c0,1.3,0,2.1,0,2.9
		c0,19.6,0,39.3,0,58.9c0,1.5-0.3,2.4-1.7,3.2c-18.5,11-36.9,22-55.3,33C163.2,378.3,162.7,378.7,162.1,378.6z"/>
	<path fill="#AB01B2" d="M162.1,315c0,21,0,42,0,63.1c-0.8-0.9-0.4-1.9-0.4-2.9c0-20.1,0-40.2,0-60.3C161.8,315,161.9,315,162.1,315
		z"/>
</g>
<g id="Layer_2">
	<path fill="#F90170" d="M216.7,217.2l-51.2,31.2c-2.3,1.4-5.1,1.4-7.4,0l-50.4-31.2l55.6-32.9L216.7,217.2z"/>
	<path fill="#A101BA" d="M216.7,217.2L188.8,200l-3.1-1.9l-5.3-3.2l-4.1-2.5l-13-8v-65.3l51.8,31.1c1.2,0.7,2,2.1,2,3.5L216.7,217.2
		z"/>
	<path fill="#CE0294" d="M107.7,217.1l55.6-32.9v-65.3l-53.1,31.5c-1.6,0.9-2.5,2.6-2.5,4.4V217.1z"/>
</g>
</svg>
