<?xml version="1.0" encoding="UTF-8"?><svg id="Layer_1" xmlns="http://www.w3.org/2000/svg" viewBox="0 0 639.5 700"><defs><style>.cls-1{fill:#f40b73;}</style></defs><path class="cls-1" d="M624.2,378.4c9.5-9.5,15.3-22.5,15.3-37s-5.8-27.5-15.3-37c-5.8-5.8-13.2-10.1-21.2-12.6v-62.9c8.1-2.6,15.4-6.8,21.2-12.6,9.5-9.5,15.3-22.5,15.3-37s-5.8-27.5-15.3-37c-9.5-9.5-22.5-15.3-37-15.3s-27.5,5.9-37,15.3c-4.5,4.5-8.1,9.8-10.7,15.7l-55.1-33.6c4.4-5.8,7.2-13,7.2-20.9s-3.9-18.2-10.1-24.4c-6.2-6.2-14.9-10.1-24.4-10.1s-18.2,3.9-24.4,10.1c-2.8,2.8-5,6.1-6.7,9.6l-73.2-44.7c.9-3.1,1.5-6.3,1.5-9.6,0-9.5-3.9-18.2-10.1-24.4s-14.9-10.1-24.4-10.1-18.2,3.9-24.4,10.1c-6.2,6.2-10.1,14.9-10.1,24.4s.7,6.8,1.6,10l-72.2,39.7c-1.2-1.8-2.7-3.6-4.2-5.1-6.2-6.2-14.9-10.1-24.4-10.1s-18.2,3.9-24.4,10.1c-6.2,6.2-10.1,14.9-10.1,24.4s1.1,9.6,2.9,13.8l-58.9,32.4c-1.8-2.7-3.9-5.2-6.2-7.5-9.5-9.5-22.5-15.3-37-15.3s-27.5,5.9-37,15.3C6,151.8,.2,164.9,.2,179.3s5.8,27.5,15.3,37c5.8,5.8,13.2,10.1,21.2,12.6v62.9c-8.1,2.6-15.4,6.8-21.2,12.6C6,313.9,.2,327,.2,341.4s5.8,27.5,15.3,37c5.8,5.8,13.2,10.1,21.2,12.6v62.9c-8.1,2.6-15.4,6.8-21.2,12.6C6,476,.2,489.1,.2,503.5s5.8,27.5,15.3,37c9.5,9.5,22.5,15.3,37,15.3s27.5-5.8,37-15.3c1-1,1.9-2.3,2.8-3.4l60,36.6c-.4,2.1-.6,4.2-.6,6.5,0,9.5,3.9,18.2,10.1,24.4,6.2,6.3,14.9,10.1,24.4,10.1s15.3-2.8,21.1-7.4l79.6,48.5c-.9,3.1-1.6,6.3-1.6,9.8,0,9.5,3.9,18.2,10.1,24.4,6.2,6.2,14.9,10.1,24.4,10.1s18.2-3.9,24.4-10.1,10.1-14.9,10.1-24.4-.7-6.8-1.6-10l81.6-49.8c6.1,5.4,14,8.8,22.9,8.8s18.2-3.9,24.4-10.1c6.2-6.2,10.1-14.9,10.1-24.4s-.5-5.8-1.2-8.6l56.8-34.7c1,1.2,1.9,2.5,3,3.6,9.5,9.5,22.5,15.3,37,15.3s27.5-5.8,37-15.3c9.5-9.5,15.3-22.5,15.3-37s-5.8-27.5-15.3-37c-5.8-5.8-13.2-10.1-21.2-12.6v-62.9c8.1-2.6,15.4-6.8,21.2-12.6Zm-200.3,192.9l-72.9-44.4c2.1-4.4,3.3-9.3,3.3-14.5s-2.3-14-6.2-19.6l46.9-28.6,32.4-19.8c1.5,2.5,3.2,4.9,5.2,7,5.5,5.5,13,9,21.3,9.8v84.8c-8.3,.8-15.7,4.3-21.3,9.8-4.2,4.2-7.3,9.6-8.8,15.6ZM208.9,129.3l77.9,47.5c-.9,3.1-1.6,6.3-1.6,9.7,0,5.9,1.6,11.4,4.3,16.3l-29.1,17.7-32.3,19.7c-2.4-4.4-5.2-8.5-8.7-12-7.9-7.9-18.5-13.1-30.2-14.6v-75.9c7.5-.7,14.3-3.7,19.7-8.5Zm223.8-1.3c5.5,5.5,13,9,21.3,9.8v75.5c-13.2,.8-25.1,6.2-33.8,15-4.5,4.5-8.2,10-10.8,15.9l-14.3-8.7-47.3-28.8c4.1-5.7,6.5-12.6,6.5-20.1s-1.1-9.7-3-14l78.6-48c.9,1.2,1.8,2.3,2.8,3.4ZM101.7,324.8l41.5-25.3c.8,.9,1.4,1.9,2.3,2.8,9.5,9.5,22.5,15.3,37,15.3s.3,0,.5,0v75.3c-8.3,.8-15.7,4.3-21.3,9.8-1.8,1.8-3.3,3.9-4.7,6l-61.5-37.5c5.8-8.4,9.2-18.6,9.2-29.6s-1.2-11.4-3-16.6Zm242.4,163c-5.5-5.5-13-8.9-21.2-9.7v-84.8c13.2-.8,25.1-6.2,33.8-15,.5-.5,.9-1.2,1.4-1.7l65.1,43.3c-.5,2.3-.7,4.6-.7,7,0,4.1,.8,8,2.2,11.7l-33,20.1-47.7,29.1Zm47.7-247l15.5,9.5c-1.4,4.8-2.4,9.7-2.4,14.9s1.1,11,2.8,16.2l-45.1,30c-1.7-2.5-3.6-4.9-5.8-7-8.8-8.8-20.7-14.2-33.8-15v-68.7c8-.7,15.2-4.1,20.7-9.3l48.2,29.4Zm-96.4,247.1c-1,1-1.9,2.2-2.8,3.3l-42.4-25.9-34.4-21c3-5.1,4.9-11.1,4.9-17.4s-.8-7.9-2.1-11.6l63.1-38.5c.4,.5,.8,1.1,1.3,1.5,8.8,8.7,20.7,14.2,33.8,15v84.8c-8.3,.8-15.7,4.3-21.3,9.8Zm-84.9-85.4c-5.5-5.5-13-9-21.3-9.8v-75.9c8.2-1.1,15.8-3.8,22.4-8.2l56,34.2c.3,10.9,3.9,20.9,9.9,29.2l-61.7,37.7c-1.5-2.6-3.2-5-5.3-7.1Zm84.9-191.5c5.5,5.5,13,9,21.3,9.8v68.7c-13.2,.8-25.1,6.2-33.8,15-2.2,2.2-4.1,4.6-5.9,7.2l-45.7-27.9c2.2-5.8,3.5-12,3.5-18.5s-1.4-13.3-3.8-19.3l32.8-20,29.3-17.8c.8,1,1.5,2,2.4,2.9Zm137.3,191.5c-3.2,3.2-5.7,7-7.5,11.2l-63-41.9c5.9-8.2,9.4-18.1,9.7-28.8l54-36c7.9,5.9,17.5,9.6,28,10.2v75.5c-8.3,.8-15.7,4.3-21.3,9.8Zm-222.2,153.2c-5.5-5.5-13-9-21.3-9.8v-84.8c8.3-.8,15.7-4.3,21.3-9.8,.6-.6,1-1.3,1.5-1.9l34.9,21.3,42.3,25.8c-2.5,4.7-4,10.1-4,15.8s.7,7,1.7,10.3l-69.9,42.6c-1.7-3.5-3.9-6.8-6.6-9.6Zm271-153.2c-5.5-5.5-13-9-21.3-9.8v-75.5c12.8-.8,24.4-6,33.1-14.4l43.2,26.3c-1,4-1.6,8-1.6,12.3,0,9.4,2.7,18.1,7,25.7l-59.6,36.4c-.3-.3-.5-.7-.8-1ZM101.6,486.6l59.3-36.2c.3,.3,.5,.6,.7,.9,5.5,5.5,13,9,21.3,9.8v84.8c-8.3,.8-15.7,4.3-21.3,9.8-3.3,3.3-5.9,7.3-7.6,11.7l-58-35.3c5.4-8.2,8.6-18,8.6-28.6s-1.2-11.6-3-16.9Zm117.7,84.7l70.1-42.8c1.6,3,3.5,5.8,5.9,8.2,5.5,5.5,13,9,21.3,9.8v84.8c-8.3,.8-15.7,4.3-21.3,9.8-2.5,2.5-4.5,5.5-6.2,8.7l-77.2-47.1c5.3-6.1,8.6-13.9,8.6-22.6s-.5-6-1.3-8.8Zm124.9,69.8c-5.5-5.5-13-9-21.3-9.8v-84.8c8.3-.8,15.7-4.3,21.3-9.8,1.4-1.4,2.5-2.9,3.7-4.4l74.9,45.7c0,.7-.2,1.4-.2,2.1,0,7.9,2.8,15.2,7.3,21l-79.6,48.6c-1.6-3.1-3.6-6.1-6.1-8.6Zm137.3-85.4c-5.5-5.5-13-9-21.3-9.8v-84.8c6-.6,11.6-2.5,16.3-5.7l59.2,39.4c-.5,2.8-.9,5.7-.9,8.7,0,10.5,3.2,20.2,8.5,28.4l-55.1,33.6c-1.7-3.6-4-7-6.8-9.8Zm68.7-251.2c-5.2,5.2-9.1,11.5-11.8,18.5l-40.9-25c7.3-9,11.8-20.3,11.8-32.8s-.7-8.6-1.7-12.7l47.9-31.9c4.7,3.6,10.1,6.4,15.9,8.2v62.9c-8.1,2.6-15.4,6.8-21.2,12.6Zm-12.7-109.5l-46.5,30.9c-8.4-7.3-19.1-11.8-30.9-12.6v-75.5c7.6-.7,14.5-3.8,19.9-8.6l57.3,35c-1.5,4.8-2.5,9.9-2.5,15.2s1.1,10.7,2.6,15.6Zm-111-75.6l-78.3,47.8c-1.2-1.7-2.5-3.4-4-4.9-5.5-5.5-13-9-21.3-9.8V68.7c8.3-.8,15.7-4.3,21.3-9.8s4.6-5.6,6.3-8.9l73.4,44.8c-.7,2.8-1.3,5.7-1.3,8.8,0,5.7,1.5,11,4,15.7Zm-131.2-60.4c5.5,5.5,13,9,21.3,9.8v83.6c-8.3,.8-15.7,4.3-21.3,9.8-2.5,2.5-4.5,5.5-6.2,8.8l-75.9-46.3c4.5-5.8,7.3-13.1,7.3-21.1s-1.1-9.5-2.9-13.8l71.6-39.4c1.6,3.1,3.6,6.1,6.1,8.5ZM161.7,128c5.5,5.5,13,9,21.3,9.8v75.3c-.2,0-.3,0-.5,0-14.4,0-27.5,5.9-37,15.3-.6,.6-1.1,1.4-1.7,2.1l-45-27.5c3.6-7.1,5.9-15.1,5.9-23.6s-2.3-16.7-6.1-23.9l58.9-32.4c1.2,1.8,2.6,3.5,4.2,5Zm-85.9,97.8l55,33.5c-.2,2-.6,3.9-.6,5.9,0,10.9,3.3,20.9,9,29.3l-39.9,24.3c-2.6-5.3-5.9-10.3-10-14.4-5.8-5.8-13.2-10.1-21.2-12.6v-62.9c2.7-.8,5.2-1.9,7.7-3.1Zm13.5,152.6c.8-.8,1.3-1.7,2-2.5l62.7,38.2c-1.6,4-2.5,8.3-2.5,12.8,0,6.8,2,13.2,5.5,18.5l-57.8,35.3c-2.6-5.2-5.8-10.1-9.9-14.2-5.8-5.8-13.2-10.1-21.2-12.6v-62.9c8.1-2.6,15.4-6.8,21.2-12.6Zm460.9,88.2c-6,6-10.3,13.5-12.8,21.8l-55.8-37.1c6.2-6.2,10-14.8,10-24.3s-2-13.1-5.4-18.4l59.1-36.1c1.5,2.1,3.1,4.1,4.9,5.9,5.8,5.8,13.2,10.1,21.2,12.6v62.9c-8.1,2.6-15.4,6.8-21.2,12.6Z"/></svg>